<?xml version="1.0" encoding="UTF-8" standalone="no"?>
<!DOCTYPE svg PUBLIC "-//W3C//DTD SVG 1.1//EN" "http://www.w3.org/Graphics/SVG/1.1/DTD/svg11.dtd">
<svg width="100%" height="100%" viewBox="0 0 1200 1200" version="1.1" xmlns="http://www.w3.org/2000/svg" xmlns:xlink="http://www.w3.org/1999/xlink" xml:space="preserve" xmlns:serif="http://www.serif.com/" style="fill-rule:evenodd;clip-rule:evenodd;stroke-linejoin:round;stroke-miterlimit:2;">
    <g transform="matrix(1.11112,0,0,1.11112,-66.6554,-66.6756)">
        <path d="M1067.4,393.89L1067.41,380.691L1067.4,380.683L1067.4,171.613L1060.72,167.793L1060.85,167.57L879.825,64.32L879.235,63.984L872.286,60.008L865.341,63.984L865.321,63.984L327.141,371.924L326.93,371.803L320.052,375.983L313.091,379.963L313.091,380.209L132.561,489.869L132.561,714.939L675.021,1030.41L675.021,1030.59L682.232,1034.61L689.099,1038.6L689.251,1038.51L871.771,1140L1066.75,1027.43L1067.4,396.911L1067.41,396.911L1067.4,393.89ZM160.58,521.96L677.74,819.07L677.74,999.6L160.58,698.83L160.58,521.96ZM858.27,728.2L858.27,905.75L705.76,996.156L705.76,818.916L858.27,728.2ZM521.64,503.55L676.21,414.128L675.066,591.548L521.636,680.298L521.64,503.55ZM871.8,301.39L1025.23,388.898L872.17,477.269L717.36,390.546L871.8,301.39ZM872.28,92.28L1025.28,179.803L507.72,479.223L354.9,388.321L872.28,92.28ZM493.62,503.44L493.62,680.18L341.12,591.059L341.113,412.729L493.62,503.44ZM690.87,614.79L844.6,703.747L691.64,794.731L535.19,704.852L690.87,614.79ZM703.104,589.481L704.226,415.311L858.266,501.6L858.086,679.17L703.104,589.481ZM899.524,284.941L1039.38,204.031L1039.38,364.701L899.524,284.941ZM313.092,577.251L174.112,497.407L313.092,412.985L313.092,577.251ZM857.812,938.581L857.648,1100.09L717.148,1021.97L857.812,938.581ZM885.671,1099.61L885.851,921.961L886.289,921.703L886.293,695.483L886.086,695.366L886.285,501.486L1039.35,413.111L1038.75,1011.23L885.671,1099.61Z" style="fill:white;fill-rule:nonzero;"/>
    </g>
</svg>
